                        <svg width="2157.7981" height="1064.4189" viewBox="0 0 500 281.6275" version="1.1" id="svg5"                            preserveAspectRatio="none">                                                            <path style="display:inline;fill:#ffd088;fill-opacity:1;stroke:none;stroke-width:0.2;stroke-linecap:round;stroke-dasharray:none;stroke-opacity:1;paint-order:stroke fill markers;"                                    d="m 47.177157,158.7195 c 20.355754,8.35551 57.233783,13.18407 82.707723,22.5814 51.08438,18.84506 78.73067,57.93986 124.72974,62.54641 55.31676,5.53967 97.85902,-6.09823 148.52821,-0.91755 42.68051,4.36387 72.79379,11.87371 124.61328,14.16323 35.32693,1.56083 43.16126,24.53453 43.16126,24.53453 H 0.0374 L 0,106.43237 c 0,0 9.1575707,36.01195 47.177157,52.28713 z"                                    id="path3106">                                    <animate attributeName="d" dur="11s" repeatCount="indefinite"                                        values="                m 47.177157,158.7195 c 20.355754,8.35551 57.233783,13.18407 82.707723,22.5814 51.08438,18.84506 78.73067,57.93986 124.72974,62.54641 55.31676,5.53967 97.85902,-6.09823 148.52821,-0.91755 42.68051,4.36387 72.79379,11.87371 124.61328,14.16323 35.32693,1.56083 43.16126,24.53453 43.16126,24.53453 H 0.0374 L 0,106.43237 c 0,0 9.1575707,36.01195 47.177157,52.28713 z;                m 55.072026,144.21671 c 20.97583,20.49787 47.372724,47.14408 72.846664,56.54141 51.08438,18.84506 64.61671,15.97913 110.68894,19.50595 55.08504,4.21675 102.65051,32.66717 155.43035,35.60919 44.25734,2.46696 80.44047,-17.51156 132.25996,-15.22204 35.32693,1.56083 44.61943,40.9763 44.61943,40.9763 H 0.0374 L 0,121.38133 c 0,0 40.398525,8.49623 55.072026,22.83538 z;                m 47.177157,158.7195 c 20.355754,8.35551 57.233783,13.18407 82.707723,22.5814 51.08438,18.84506 78.73067,57.93986 124.72974,62.54641 55.31676,5.53967 97.85902,-6.09823 148.52821,-0.91755 42.68051,4.36387 72.79379,11.87371 124.61328,14.16323 35.32693,1.56083 43.16126,24.53453 43.16126,24.53453 H 0.0374 L 0,106.43237 c 0,0 9.1575707,36.01195 47.177157,52.28713 z" />                                </path>                                <path style="display:inline;fill:#fbdcac;fill-opacity:1;stroke:none;stroke-width:0.2;stroke-linecap:round;stroke-dasharray:none;stroke-opacity:1;paint-order:stroke fill markers;"                                    d="m 59.019581,187.90533 c 21.678017,3.77289 41.748169,8.60705 70.661689,19.98875 50.66535,19.94424 65.90557,47.11335 111.9778,50.64017 55.08504,4.21675 80.10682,3.3292 118.5391,5.94509 41.9124,2.85276 163.25859,17.07171 163.25859,17.07171 H 1.1306177e-4 L 0,144.33276 c 0,0 17.263637,36.30528 59.019581,43.57257 z"                                    id="path3106-8">                                    <animate attributeName="d" dur="9s" repeatCount="indefinite"                                        values="                m 59.019581,187.90533 c 21.678017,3.77289 41.748169,8.60705 70.661689,19.98875 50.66535,19.94424 65.90557,47.11335 111.9778,50.64017 55.08504,4.21675 80.10682,3.3292 118.5391,5.94509 41.9124,2.85276 163.25859,17.07171 163.25859,17.07171 H 1.1306177e-4 L 0,144.33276 c 0,0 17.263637,36.30528 59.019581,43.57257 z;                m 61.229133,190.76256 c 9.73323,11.11374 28.188446,26.97384 57.101967,38.35554 50.66535,19.94424 77.71918,14.24766 123.79141,17.77448 55.08504,4.21675 77.70018,16.38843 116.91707,21.55551 54.57691,7.19086 165.06088,-17.24281 164.41718,13.10296 H 1.1306177e-4 L 0,155.44526 c 0,0 33.513896,3.67108 61.229133,35.3173 z;                m 59.019581,187.90533 c 21.678017,3.77289 41.748169,8.60705 70.661689,19.98875 50.66535,19.94424 65.90557,47.11335 111.9778,50.64017 55.08504,4.21675 80.10682,3.3292 118.5391,5.94509 41.9124,2.85276 163.25859,17.07171 163.25859,17.07171 H 1.1306177e-4 L 0,144.33276 c 0,0 17.263637,36.30528 59.019581,43.57257 z" />                                </path>                                <!-- <path                                    style="display:inline;fill:#ffd088;fill-opacity:1;stroke:none;stroke-width:0.2;stroke-linecap:round;stroke-dasharray:none;stroke-opacity:1;paint-order:stroke fill markers;filter:url(#filter10750)"                                    d="m 47.177157,158.7195 c 20.355754,8.35551 57.233783,13.18407 82.707723,22.5814 51.08438,18.84506 78.73067,57.93986 124.72974,62.54641 55.31676,5.53967 97.85902,-6.09823 148.52821,-0.91755 42.68051,4.36387 72.79379,11.87371 124.61328,14.16323 35.32693,1.56083 43.16126,24.53453 43.16126,24.53453 H 0.0374 L 0,106.43237 c 0,0 9.1575707,36.01195 47.177157,52.28713 z"                                    id="path3106" sodipodi:nodetypes="cssascccc" />                                <path                                    style="display:inline;fill:#fbdcac;fill-opacity:1;stroke:none;stroke-width:0.2;stroke-linecap:round;stroke-dasharray:none;stroke-opacity:1;paint-order:stroke fill markers;filter:url(#filter10658)"                                    d="m 59.019581,187.90533 c 21.678017,3.77289 41.748169,8.60705 70.661689,19.98875 50.66535,19.94424 65.90557,47.11335 111.9778,50.64017 55.08504,4.21675 80.10682,3.3292 118.5391,5.94509 41.9124,2.85276 163.25859,17.07171 163.25859,17.07171 H 1.1306177e-4 L 0,144.33276 c 0,0 17.263637,36.30528 59.019581,43.57257 z"                                    id="path3106-8" sodipodi:nodetypes="sssscccs" /> -->                        </svg>